<?xml version="1.0" standalone="no"?>
<!DOCTYPE svg PUBLIC "-//W3C//DTD SVG 20010904//EN"
 "http://www.w3.org/TR/2001/REC-SVG-20010904/DTD/svg10.dtd">
<svg version="1.0" xmlns="http://www.w3.org/2000/svg"
 width="256.000000pt" height="256.000000pt" viewBox="0 0 256.000000 256.000000"
 preserveAspectRatio="xMidYMid meet">
<metadata>
Created by potrace 1.11, written by Peter Selinger 2001-2013
</metadata>
<g transform="translate(0.000000,256.000000) scale(0.100000,-0.100000)"
fill="#000000" stroke="none">
<path d="M1080 2544 c-98 -18 -172 -36 -210 -51 -8 -3 -19 -7 -25 -9 -58 -19
-85 -30 -85 -36 0 -5 -7 -8 -15 -8 -18 0 -57 -20 -67 -35 -4 -5 -8 -6 -8 -2 0
5 -13 -1 -29 -12 -16 -12 -32 -21 -35 -21 -4 0 -12 -5 -19 -10 -7 -6 -43 -33
-80 -61 -69 -51 -173 -151 -217 -208 -14 -18 -37 -47 -52 -64 -15 -18 -28 -38
-28 -45 0 -7 -7 -15 -15 -18 -8 -4 -13 -10 -10 -14 3 -5 0 -14 -7 -22 -21 -21
-74 -137 -106 -228 -27 -78 -43 -139 -58 -230 -11 -59 -12 -320 -2 -364 16
-72 81 -113 137 -84 56 29 56 28 57 227 0 192 16 296 60 398 9 21 17 43 18 48
5 24 72 146 114 205 64 91 144 173 237 243 89 67 257 154 310 161 6 1 15 4 20
7 9 6 37 13 135 35 34 8 293 13 304 7 5 -4 27 -8 50 -10 83 -7 271 -69 310
-102 10 -9 19 -14 20 -11 2 7 146 -83 146 -92 0 -5 -22 -8 -50 -8 -40 0 -55
-5 -80 -27 -34 -32 -43 -76 -24 -115 28 -55 41 -58 256 -58 l198 0 32 29 33
29 2 163 c1 89 4 168 7 176 3 7 2 13 -2 13 -4 0 -7 12 -7 28 1 33 -28 78 -56
87 -52 17 -73 13 -106 -20 -33 -33 -38 -51 -33 -134 l2 -33 -31 18 c-17 10
-41 27 -54 39 -66 58 -253 148 -389 186 -167 47 -393 60 -548 33z"/>
<path d="M1044 1667 c-31 -17 -411 -305 -431 -326 -24 -26 -28 -75 -7 -109 9
-15 49 -52 90 -82 41 -30 116 -87 167 -125 164 -126 184 -138 222 -138 40 0
78 30 93 72 19 55 -7 87 -168 206 -82 61 -149 112 -149 115 0 3 61 50 135 105
74 55 144 110 155 121 42 45 40 111 -5 146 -29 21 -77 29 -102 15z"/>
<path d="M1438 1666 c-38 -19 -68 -72 -58 -104 12 -44 28 -64 82 -102 27 -19
57 -42 67 -50 11 -8 53 -40 95 -70 41 -30 76 -57 76 -60 0 -3 -17 -16 -37 -30
-20 -14 -41 -30 -47 -35 -6 -6 -49 -38 -96 -72 -97 -71 -140 -111 -141 -133 0
-8 -1 -29 -2 -47 -1 -17 0 -29 2 -27 3 2 17 -8 32 -22 29 -28 60 -35 96 -22
22 7 403 289 436 322 22 22 31 59 23 91 -6 24 -27 48 -76 86 -95 73 -374 279
-379 280 -39 5 -55 4 -73 -5z"/>
<path d="M2404 1533 c-16 -8 -33 -22 -39 -31 -6 -10 -10 -98 -11 -202 -1 -159
-4 -196 -23 -265 -12 -44 -24 -84 -25 -90 -11 -41 -63 -157 -89 -200 -129
-212 -299 -363 -517 -458 -72 -32 -77 -33 -205 -64 -86 -20 -331 -23 -420 -4
-142 30 -336 115 -431 190 l-27 21 52 0 c28 0 53 -1 55 -2 7 -5 48 37 61 62
23 46 -3 112 -53 131 -15 6 -105 9 -219 7 l-193 -3 -27 -28 -28 -27 -2 -193
c-2 -166 0 -197 15 -227 32 -66 119 -70 165 -8 14 19 19 42 19 87 0 44 4 59
12 53 6 -4 45 -30 86 -58 226 -155 469 -226 750 -219 80 2 156 6 170 9 14 4
41 9 60 12 97 16 273 84 395 153 48 27 149 101 153 113 2 4 7 8 12 8 12 0 127
116 176 176 21 27 42 51 47 52 4 2 7 9 7 16 0 7 8 21 18 32 49 53 147 279 176
406 27 118 30 153 30 313 1 165 -7 200 -47 234 -23 18 -72 21 -103 4z"/>
</g>
</svg>
