<?xml version="1.0" encoding="UTF-8"?> <svg xmlns="http://www.w3.org/2000/svg" id="bbda1549-0950-429e-960d-67c5cc806b81" data-name="Ñëîé 1" width="384.21" height="362.94" viewBox="0 0 384.21 362.94"><title>Check-mark-Inov</title><path d="M380.05,26a25.9,25.9,0,0,0-35.78-7.67c-91.37,59-149.52,145.85-177,194.61l-46.34-60.58a25.87,25.87,0,1,0-41.1,31.43L151,276.89a26.07,26.07,0,0,0,20.55,10.16,25.56,25.56,0,0,0,3.14-.19,26,26,0,0,0,20.58-15.37c.58-1.33,58.95-133.37,177.1-209.72A25.86,25.86,0,0,0,380.05,26Z" fill="#78a140"></path><path d="M322.59,128.25a150.9,150.9,0,1,1-58.7-73q11.34-10.65,23.71-20.93a181.62,181.62,0,1,0,59.11,72.23C338.27,113.56,330.23,120.84,322.59,128.25Z" fill="#787878"></path></svg> 