<?xml version="1.0" standalone="no"?>
<!DOCTYPE svg PUBLIC "-//W3C//DTD SVG 20010904//EN"
 "http://www.w3.org/TR/2001/REC-SVG-20010904/DTD/svg10.dtd">
<svg version="1.0" xmlns="http://www.w3.org/2000/svg"
 width="512.000000pt" height="512.000000pt" viewBox="0 0 512.000000 512.000000"
 preserveAspectRatio="xMidYMid meet">
<metadata>
Created by potrace 1.15, written by Peter Selinger 2001-2017
</metadata>
<g transform="translate(0.000000,512.000000) scale(0.100000,-0.100000)"
fill="#000000" stroke="none">
<path d="M1787 3868 c-410 -689 -742 -1254 -737 -1256 6 -2 1257 541 1474 639
l26 12 0 929 c0 510 -4 928 -9 928 -4 0 -344 -564 -754 -1252z"/>
<path d="M2642 4190 l3 -934 750 -328 c412 -180 753 -327 757 -326 8 3 -1480
2489 -1503 2513 -6 5 -8 -349 -7 -925z"/>
<path d="M1758 2822 c-422 -186 -768 -339 -768 -342 1 -5 1530 -902 1550 -908
7 -3 10 253 10 792 0 631 -3 796 -12 795 -7 0 -358 -152 -780 -337z"/>
<path d="M2640 2366 l0 -797 24 13 c88 48 1526 894 1526 898 0 4 -1497 663
-1540 678 -6 2 -10 -291 -10 -792z"/>
<path d="M1007 2146 c47 -79 1520 -2146 1530 -2146 11 0 13 107 11 631 l-3
631 -765 449 c-421 246 -769 448 -773 449 -4 0 -4 -6 0 -14z"/>
<path d="M3403 1712 l-763 -447 0 -632 c0 -374 4 -633 9 -633 7 0 1494 2094
1525 2148 4 6 4 12 -1 11 -4 0 -351 -201 -770 -447z"/>
</g>
</svg>
